<?xml version="1.0" encoding="utf-8"?>
<!-- Generator: Adobe Illustrator 19.1.0, SVG Export Plug-In . SVG Version: 6.00 Build 0)  -->
<svg version="1.1" id="Capa_1" xmlns="http://www.w3.org/2000/svg" xmlns:xlink="http://www.w3.org/1999/xlink" x="0px" y="0px"
	 viewBox="-296.4 211.5 174.3 290.3" style="enable-background:new -296.4 211.5 174.3 290.3;" xml:space="preserve">
<style type="text/css">
	.st0{fill:#f8a127;}
	.st1{fill:#f8a127;}
</style>
<g>
	<g>
		<path class="st0" d="M-223.6,416c-22.5-2.3-42.8-7.9-60.2-21.5c-2.2-1.7-4.4-3.3-6.3-5.2c-7.6-7.3-8.4-15.7-2.4-24.3
			c5.1-7.4,13.8-9.3,22.8-5.1c1.7,0.8,3.4,1.8,5,2.9c32.4,22.2,76.8,22.9,109.3,1c3.2-2.5,6.7-4.5,10.6-5.5c7.8-2,15,0.9,19.1,7.6
			c4.8,7.7,4.7,15.3-1.2,21.3c-9,9.2-19.8,15.9-31.8,20.6c-11.4,4.4-23.8,6.6-36.1,8.1c1.9,2,2.7,3,3.9,4.2
			c16.7,16.8,33.5,33.5,50.2,50.4c5.7,5.7,6.9,12.9,3.7,19.5c-3.4,7.3-11.1,12.1-18.6,11.6c-4.8-0.3-8.5-2.7-11.7-6
			c-12.6-12.7-25.5-25.1-37.8-38.1c-3.6-3.8-5.3-3-8.5,0.2c-12.7,13.1-25.6,25.9-38.6,38.7c-5.8,5.7-12.8,6.8-19.5,3.5
			c-7.2-3.5-11.7-10.8-11.4-18.2c0.2-5,2.7-8.8,6.1-12.2c16.5-16.5,33-33.1,49.5-49.6C-226.2,418.8-225.2,417.7-223.6,416z"/>
		<path class="st1" d="M-209.9,358.4c-40.1-0.1-73.1-33.4-72.8-73.6c0.2-40.7,33.2-73.4,73.7-73.3c40.6,0.1,73.2,33.3,73,74.4
			C-136.2,326.1-169.3,358.6-209.9,358.4z M-173.4,284.9c-0.1-20-16-35.9-35.9-35.9c-20.1,0-36.1,16.2-36,36.3
			c0.1,19.9,16.2,35.7,36.2,35.6C-189.2,320.9-173.3,304.9-173.4,284.9z"/>
	</g>
</g>
</svg>
