<?xml version="1.0" encoding="utf-8"?>
<!-- Generator: Adobe Illustrator 19.1.0, SVG Export Plug-In . SVG Version: 6.00 Build 0)  -->
<svg version="1.1" id="Слой_1" xmlns="http://www.w3.org/2000/svg" xmlns:xlink="http://www.w3.org/1999/xlink" x="0px" y="0px"
	 viewBox="-429 247 100 68" style="enable-background:new -429 247 100 68;" xml:space="preserve">
<style type="text/css">
	.st0{fill:#F8A127;}
</style>
<g>
	<g transform="translate(-1110 -3158)">
		<g>
			<path id="xtwqa" class="st0" d="M731,3452.6l12.4-10.3l35.3,28.9c-1.3,1.1-3,1.8-4.9,1.8h-85.6c-1.9,0-3.6-0.7-5-1.8l35.4-28.9
				L731,3452.6z M778.7,3406.8l-47.7,39l-47.7-39c1.3-1.1,3-1.8,4.9-1.8h85.6C775.7,3405,777.4,3405.7,778.7,3406.8L778.7,3406.8z
				 M681,3411l34.5,28.6l-34.5,27.9V3411z M746.5,3439.5L781,3411v56.5L746.5,3439.5z"/>
		</g>
	</g>
</g>
</svg>
