<?xml version="1.0" encoding="utf-8"?>
<!-- Generator: Adobe Illustrator 19.1.0, SVG Export Plug-In . SVG Version: 6.00 Build 0)  -->
<svg version="1.1" id="Слой_1" xmlns="http://www.w3.org/2000/svg" xmlns:xlink="http://www.w3.org/1999/xlink" x="0px" y="0px"
	 viewBox="-72 189.4 727.3 217.9" style="enable-background:new -72 189.4 727.3 217.9;" xml:space="preserve">
<style type="text/css">
	.st0{fill:#0774C8;}
</style>
<g>
	<g>
		<g>
			<g>
				<path d="M-27.8,190.4c-3.2,0-10.3,0.1-21.4,0.3s-17.7,0.3-20,0.3H-72v139.9h3.4c4.9,0,12.2,0.1,21.8,0.2s15.4,0.2,17.4,0.2
					c25.6,0,45.3-6.8,59.2-20.3s20.9-30.6,20.9-51.2c0-20.1-6.5-36.7-19.5-49.8C18.2,196.9-1.5,190.4-27.8,190.4z M4.6,290.4
					c-8.1,7.3-19.1,10.9-33.1,10.9c-4.9,0-8.8-0.1-11.6-0.4V221c2.7-0.4,6.6-0.6,11.8-0.6c13.5,0,24.3,3.4,32.6,10.3
					s12.4,16.6,12.4,29.1C16.7,272.9,12.7,283.1,4.6,290.4z"/>
				<path d="M198.7,330.9L140.6,191H112L53.9,330.9h32.2l11.6-29.4H153l11.6,29.4H198.7L198.7,330.9L198.7,330.9L198.7,330.9z
					 M109.6,271.5l15.8-39.6l15.6,39.6H109.6z"/>
				<path d="M251.9,212.7l0.1-0.1l0,0L251.9,212.7z"/>
				<path d="M232.3,238.1c0.1-0.2,0.3-0.4,0.4-0.6C232.6,237.7,232.5,237.8,232.3,238.1L232.3,238.1l19.7-25.7l0.1,0.1L238.5,191
					h-37.6l30.8,47.6C231.9,238.4,232.1,238.2,232.3,238.1z"/>
				<polygon points="232.4,279.3 232.4,279.3 198.7,330.9 198.7,330.9 236.3,330.9 252,305.9 251.9,306.1 				"/>
				<polygon points="366.4,218.6 382,243.3 396,233.6 396,330.9 425.9,330.9 425.9,191 404.3,191 				"/>
				<path d="M498.3,189.4c-15.9,0-27.9,6.3-36.1,19c-8.2,12.6-12.3,30.2-12.3,52.5c0,22.2,4.1,39.7,12.4,52.4
					c8.3,12.7,20.4,19.1,36.4,19.1c15.9,0,27.8-6.3,35.9-19c8.1-12.7,12.1-30.2,12.1-52.5s-4.1-39.9-12.3-52.5
					C526.1,195.7,514.1,189.4,498.3,189.4z M510.9,294.8c-2.5,6.5-6.6,9.7-12.3,9.7c-11.2,0-16.8-14.5-16.8-43.6
					c0-15.7,1.3-26.9,3.9-33.6c2.6-6.7,6.8-10,12.5-10c5.9,0,10.1,3.2,12.6,9.7c2.5,6.5,3.8,17.8,3.8,33.9S513.4,288.3,510.9,294.8z
					"/>
				<path d="M643,208.4c-8.2-12.7-20.2-19-36.1-19c-15.9,0-27.9,6.3-36.1,19s-12.3,30.2-12.3,52.5c0,22.2,4.1,39.7,12.4,52.4
					c8.3,12.7,20.4,19.1,36.4,19.1c15.9,0,27.8-6.3,35.9-19c8.1-12.7,12.1-30.2,12.1-52.5C655.3,238.6,651.2,221,643,208.4z
					 M619.6,294.8c-2.5,6.5-6.6,9.7-12.3,9.7c-11.2,0-16.8-14.5-16.8-43.6c0-15.7,1.3-26.9,3.9-33.6c2.6-6.7,6.8-10,12.5-10
					c5.9,0,10.1,3.2,12.6,9.7s3.8,17.8,3.8,33.9S622.1,288.3,619.6,294.8z"/>
				<path d="M252,212.6c0,0,0-0.1,0.1-0.1C252,212.5,252,212.6,252,212.6L252,212.6z"/>
			</g>
		</g>
	</g>
	<polygon class="st0" points="264.4,232.1 294,191 331.6,191 286.8,259.5 333.4,330.9 295.8,330.9 264.7,285.7 245.3,259.5 	"/>
</g>
<g>
	<path d="M-29.5,378.6c0,13.2-8.2,22.1-20.4,22.1c-12.1,0-20.2-8.9-20.2-22.4c0-13.3,8.2-22.4,20.2-22.4
		C-37.8,355.9-29.5,365.2-29.5,378.6z M-67.4,378.2c0,12.1,7.1,20.2,17.6,20.2c10.6,0,17.8-8,17.8-19.9c0-12-7.3-20.3-17.8-20.3
		C-61.2,358.2-67.4,367.7-67.4,378.2z"/>
	<path d="M17.3,399.7h-2.9l-23.9-33.8c-1.3-1.9-2.6-3.8-3.7-5.9c0.2,2.2,0.2,4.4,0.2,6.5v33.2h-2.5v-42.7h3l23.5,33.2
		c1.4,2.1,2.8,4.3,4.1,6.4c-0.1-2.7-0.2-5.5-0.2-8.2l-0.1-31.5h2.6V399.7z"/>
	<path d="M60.5,399.7h-27v-42.7h2.6v40.4h24.4V399.7z"/>
	<path d="M74.6,399.7H72v-42.7h2.6V399.7z"/>
	<path d="M123.2,399.7h-2.9l-23.9-33.8c-1.3-1.9-2.6-3.8-3.7-5.9c0.2,2.2,0.2,4.4,0.2,6.5v33.2h-2.5v-42.7h3l23.5,33.2
		c1.4,2.1,2.8,4.3,4.1,6.4c-0.1-2.7-0.2-5.5-0.2-8.2l-0.1-31.5h2.6V399.7z"/>
	<path d="M168,359.2h-26.2v17.1h24.6v2.3h-24.6v18.8h26.5v2.3h-29v-42.7H168V359.2z"/>
	<path d="M224.6,400.6c-11.8,0-19.6-8.9-19.6-22.2c0-13.4,8-22.5,19.9-22.5c8.2,0,16.6,5.2,17.5,13.9h-2.5
		c-1.5-7.1-7.3-11.5-15.1-11.5c-10.3,0-17.2,8.1-17.2,20.1c0,12,6.8,20,17,20c9.4,0,14.9-6.6,16-15.2h2.5
		C242.3,393.5,234.8,400.6,224.6,400.6z"/>
	<path d="M284.3,359.2H260v17.2h21.8v2.2H260v21.1h-2.6v-42.7h26.9V359.2z"/>
	<path d="M310.7,356.9c12.8,0,19.4,8,19.4,20.7c0,12.5-5.6,22-19.4,22h-14.5v-42.7H310.7z M298.9,397.4h11
		c13.1,0,17.7-7.9,17.7-19.6c0-11-5.2-18.6-17-18.6h-11.7V397.4z"/>
	<path d="M397.8,359.2h-15.1v40.4h-2.6v-40.4h-15.2v-2.3h32.9V359.2z"/>
	<path d="M426.7,356.9c4,0,6.7,0.6,8.9,2c3.1,2,4.7,5.3,4.7,9.4c0,5.8-3.6,9.7-9.1,10.7c3.8,0.6,7,1.9,7.9,6.6
		c0.7,4,0.4,8.1,1.1,12.1c0.2,1,0.3,1.1,0.8,2h-2.9c-0.4-0.5-0.5-1.1-0.6-1.7c-0.3-1.9-0.5-7-0.6-8.8c-0.6-8-4.6-9.1-12.1-9.1h-13.3
		v19.6h-2.6v-42.7H426.7z M411.7,377.9h12.9c6.5,0,13.1-1.4,13.1-9.5c0-3.4-1.3-5.9-3.9-7.6c-2.6-1.6-5-1.7-8-1.7h-14.2V377.9z"/>
	<path d="M487.7,399.7h-2.9l-5.3-13.8h-20.6l-5.5,13.8h-2.8l17.3-42.7h2.8L487.7,399.7z M470.9,363.9c-0.5-1.4-1-3.1-1.6-4.5
		c-0.5,1.4-1,2.9-1.6,4.3l-8,20h19L470.9,363.9z"/>
	<path d="M513.6,356.9c12.8,0,19.4,8,19.4,20.7c0,12.5-5.6,22-19.4,22h-14.5v-42.7H513.6z M501.8,397.4h11
		c13.1,0,17.7-7.9,17.7-19.6c0-11-5.2-18.6-17-18.6h-11.7V397.4z"/>
	<path d="M550.1,399.7h-2.6v-42.7h2.6V399.7z"/>
	<path d="M598.7,399.7h-2.9l-23.9-33.8c-1.3-1.9-2.6-3.8-3.7-5.9c0.2,2.2,0.2,4.4,0.2,6.5v33.2h-2.5v-42.7h3l23.5,33.2
		c1.4,2.1,2.8,4.3,4.1,6.4c-0.1-2.7-0.2-5.5-0.2-8.2l-0.1-31.5h2.6V399.7z"/>
	<path d="M652.3,399.7h-1.9L650,392l0.1-2.8c-2.3,7.4-9.2,11.3-16.4,11.3c-12,0-20.2-8.9-20.2-21.8c0-13.6,8.2-22.7,20.2-22.7
		c8.9,0,16.5,5.6,17.8,14.2h-2.5c-1.6-7.4-7.9-11.9-15.4-11.9c-10.6,0-17.6,8.1-17.6,20.5c0,11.8,7,19.6,17.6,19.6
		c9.7,0,16.2-6.7,16.2-16.7v-0.7h-15.8v-2.2h18.1V399.7z"/>
</g>
</svg>
