<?xml version="1.0" encoding="utf-8"?>
<!-- Generator: Adobe Illustrator 19.1.0, SVG Export Plug-In . SVG Version: 6.00 Build 0)  -->
<svg version="1.1" id="Layer_1" xmlns="http://www.w3.org/2000/svg" xmlns:xlink="http://www.w3.org/1999/xlink" x="0px" y="0px"
	 viewBox="-266 383.9 63 75" style="enable-background:new -266 383.9 63 75;" xml:space="preserve">
<style type="text/css">
	.st0{fill:#010101;}
	.st1{fill:#0774C8;}
</style>
<path id="XMLID_4_" d="M-248.3,405.3c0.1-0.1,0.1-0.1,0.2-0.2C-248.2,405.1-248.3,405.1-248.3,405.3L-248.3,405.3l8-9.3l0.1,0.1
	l-5.5-7.8H-261l12.5,17.3C-248.5,405.4-248.5,405.3-248.3,405.3z"/>
<polygon id="XMLID_3_" points="-248.3,420.3 -248.3,420.3 -262,439 -262,439 -246.7,439 -240.3,429.9 -240.4,430 "/>
<polygon id="XMLID_2_" class="st0" points="-207.9,388.1 -223.3,388.1 -235.3,403 -243,413.1 -235.2,422.6 -222.5,439 -207.2,439 
	-226.2,413.1 "/>
<polygon id="XMLID_5_" class="st1" points="-235.4,403 -223.2,388.1 -207.8,388.1 -226.2,413.1 -207,439 -222.5,439 -235.3,422.6 
	-243.3,413.1 "/>
<g id="XMLID_8_">
	<g id="XMLID_9_">
		<g id="XMLID_10_">
			<path id="XMLID_26_" d="M-257.1,444.9c-0.2,0-0.7,0-1.6,0s-1.3,0-1.5,0h-0.2v9.5h0.2c0.4,0,0.9,0,1.6,0c0.7,0,1.2,0,1.3,0
				c1.9,0,3.4-0.5,4.4-1.4s1.5-2.1,1.5-3.5s-0.5-2.5-1.5-3.4C-253.7,445.3-255.2,444.9-257.1,444.9z M-254.7,451.7
				c-0.6,0.5-1.4,0.7-2.5,0.7c-0.4,0-0.7,0-0.9,0v-5.5c0.2,0,0.5-0.1,0.9-0.1c1,0,1.8,0.2,2.4,0.7c0.6,0.4,0.9,1.1,0.9,2
				C-253.8,450.5-254.1,451.2-254.7,451.7z"/>
			<path id="XMLID_23_" d="M-240.3,454.4l-4.3-9.5h-2.2l-4.3,9.5h2.4l0.9-2h4.1l0.9,2H-240.3L-240.3,454.4L-240.3,454.4
				L-240.3,454.4z M-246.9,450.4l1.2-2.7l1.2,2.7H-246.9z"/>
			<path id="XMLID_21_" d="M-237.8,448.1L-237.8,448.1L-237.8,448.1L-237.8,448.1l1.5-1.8l0,0l-1-1.5h-2.8L-237.8,448.1
				C-237.8,448.2-237.8,448.1-237.8,448.1z"/>
			<polygon id="XMLID_20_" points="-237.8,450.9 -237.8,450.9 -240.3,454.4 -240.3,454.4 -237.5,454.4 -236.3,452.7 -236.3,452.8 
							"/>
			<polygon id="XMLID_18_" points="-230.1,446.8 -228.9,448.5 -227.9,447.8 -227.9,454.4 -225.6,454.4 -225.6,444.9 -227.2,444.9 
							"/>
			<path id="XMLID_15_" d="M-220.3,444.8c-1.2,0-2.1,0.4-2.7,1.3s-0.9,2.1-0.9,3.6s0.3,2.7,0.9,3.6s1.5,1.3,2.7,1.3s2.1-0.4,2.6-1.3
				s0.9-2.1,0.9-3.6s-0.3-2.7-0.9-3.6C-218.2,445.2-219.1,444.8-220.3,444.8z M-219.4,452c-0.2,0.4-0.5,0.7-0.9,0.7
				c-0.9,0-1.2-1-1.2-3c0-1,0.1-1.8,0.3-2.3s0.5-0.7,0.9-0.7s0.7,0.2,0.9,0.7c0.2,0.4,0.3,1.2,0.3,2.3
				C-219.1,450.8-219.2,451.6-219.4,452z"/>
			<path id="XMLID_12_" d="M-209.5,446.1c-0.6-0.9-1.5-1.3-2.7-1.3s-2.1,0.4-2.7,1.3s-0.9,2.1-0.9,3.6s0.3,2.7,0.9,3.6
				s1.5,1.3,2.7,1.3s2.1-0.4,2.6-1.3c0.6-0.9,0.9-2.1,0.9-3.6C-208.6,448.2-208.9,446.9-209.5,446.1z M-211.3,452
				c-0.2,0.4-0.5,0.7-0.9,0.7c-0.9,0-1.2-1-1.2-3c0-1,0.1-1.8,0.3-2.3s0.5-0.7,0.9-0.7s0.7,0.2,0.9,0.7c0.2,0.4,0.3,1.2,0.3,2.3
				C-211,450.8-211.1,451.6-211.3,452z"/>
		</g>
	</g>
</g>
<polygon id="XMLID_7_" class="st1" points="-235.2,447.7 -233,444.9 -230.3,444.9 -233.6,449.6 -230.1,454.4 -232.9,454.4 
	-235.2,451.4 -236.7,449.6 "/>
</svg>
