<?xml version="1.0" encoding="utf-8"?>
<!-- Generator: Adobe Illustrator 19.1.0, SVG Export Plug-In . SVG Version: 6.00 Build 0)  -->
<svg version="1.1" id="Background" xmlns="http://www.w3.org/2000/svg" xmlns:xlink="http://www.w3.org/1999/xlink" x="0px" y="0px"
	 viewBox="0 0 567.0004883 104.0083008" style="enable-background:new 0 0 567.0004883 104.0083008;" xml:space="preserve">
<style type="text/css">
	.st0{fill-rule:evenodd;clip-rule:evenodd;fill:#F59A00;}
	.st1{opacity:0.1;clip-path:url(#SVGID_2_);}
	.st2{fill:#F1F1F1;}
	.st3{clip-path:url(#SVGID_2_);}
	.st4{display:none;opacity:0.3;fill-rule:evenodd;clip-rule:evenodd;fill:#FFFFFF;}
	.st5{display:none;fill-rule:evenodd;clip-rule:evenodd;fill:#FFFFFF;stroke:#000000;stroke-width:2;stroke-miterlimit:10;}
	.st6{display:none;opacity:0.5;fill-rule:evenodd;clip-rule:evenodd;fill:#FFFFFF;}
	.st7{fill-rule:evenodd;clip-rule:evenodd;fill:#FFFFFF;stroke:#FFFFFF;stroke-width:2;stroke-miterlimit:10;}
</style>
<g>
	<rect class="st0" width="675.9937134" height="104.0087967"/>
	<g>
		<defs>
			<rect id="SVGID_1_" x="0.0005" width="675.9931641" height="104.0083008"/>
		</defs>
		<clipPath id="SVGID_2_">
			<use xlink:href="#SVGID_1_"  style="overflow:visible;"/>
		</clipPath>
		<g class="st1">
			<g>
				<g>
					<polygon class="st2" points="546.9428711,38.2777977 563.4868164,-339.9805298 530.3999023,-339.9805298 					"/>
					<polygon class="st2" points="530.5307617,434.4570007 563.3521118,434.4570007 546.9428711,59.2567978 					"/>
				</g>
				<g>
					<polygon class="st2" points="549.1265259,38.5088005 647.0717773,-339.9805298 612.4644165,-339.9805298 					"/>
					<polygon class="st2" points="447.6011047,434.4570007 481.9320984,434.4570007 544.762207,59.0209999 					"/>
				</g>
				<g>
					<polygon class="st2" points="551.2133789,39.1870003 742.3617554,-339.9805298 700.6021118,-339.9805298 					"/>
					<polygon class="st2" points="352.8081055,434.4570007 394.4867859,434.4570007 542.675293,58.3417969 					"/>
				</g>
				<g>
					<polygon class="st2" points="553.1079102,40.2855988 851.4320679,-339.9805298 790.6665039,-339.9805298 					"/>
					<polygon class="st2" points="239.0932922,434.4570007 293.7543945,434.4570007 540.7817993,57.248497 					"/>
				</g>
				<g>
					<polygon class="st2" points="935.5170898,-275.2392883 935.5170898,-332.8760071 554.7398071,41.7476006 					"/>
					<polygon class="st2" points="539.1508789,55.7792969 -1.8345,371.6698914 -1.8345,426.2938843 					"/>
					<path class="st2" d="M162.535202,433.780304L539.1508789,55.7792969L111.0083008,432.1445007
						C128.1338043,431.6435852,145.4526062,431.9618835,162.535202,433.780304z"/>
				</g>
				<g>
					<polygon class="st2" points="935.5170898,-151.3007965 935.5170898,-196.1830902 556.027771,43.5243835 					"/>
					<polygon class="st2" points="537.8549805,54.0028992 -1.8345,247.4691925 -1.8345,293.0810852 					"/>
				</g>
				<g>
					<polygon class="st2" points="935.5170898,-59.2456169 935.5170898,-95.8529968 556.9204102,45.5303001 					"/>
					<polygon class="st2" points="536.9682617,52.0043831 -1.8345,156.4218903 -1.8345,192.9111023 					"/>
				</g>
				<g>
					<polygon class="st2" points="935.5170898,24.7841988 935.5170898,-8.6581993 557.3725586,47.6708984 					"/>
					<polygon class="st2" points="536.5103149,49.855999 -1.8345,72.6664963 -1.8345,106.0023804 					"/>
				</g>
				<g>
					<polygon class="st2" points="935.5170898,106.6488953 935.5170898,73.1996994 557.3725586,49.8671989 					"/>
					<polygon class="st2" points="536.5103149,47.6591988 -1.8345,-8.9312 -1.8345,24.4071999 					"/>
				</g>
				<g>
					<polygon class="st2" points="935.5170898,193.9008942 935.5170898,157.2602997 556.9165039,52.0107002 					"/>
					<polygon class="st2" points="536.0064087,45.5165977 -1.8345,-95.8964996 -1.8345,-59.3778992 					"/>
				</g>
				<g>
					<polygon class="st2" points="935.5170898,301.7236023 935.5170898,247.5648956 556.0238647,54.0126991 					"/>
					<polygon class="st2" points="537.8666992,43.5126991 -0.4556,-201.5770874 -0.4556,-157.8916168 					"/>
				</g>
				<g>
					<polygon class="st2" points="935.5170898,374.7020874 554.7310181,55.7885971 930.6176758,434.4570007 
						935.5170898,434.4570007 					"/>
					<polygon class="st2" points="539.152771,41.7383003 159.641098,-330.2246094 159.641098,-267.6708984 					"/>
					<polygon class="st2" points="537.8666992,43.5126991 46.2764015,-293.5189819 34.5663986,-246.3290863 					"/>
				</g>
				<g>
					<polygon class="st2" points="802.472168,434.4570007 852.3150024,434.4570007 553.1060181,57.2543831 					"/>
					<polygon class="st2" points="540.7827148,40.2724991 288.1445007,-339.9805298 234.7045898,-339.9805298 					"/>
				</g>
				<g>
					<polygon class="st2" points="698.8765259,434.4570007 740.9165039,434.4570007 551.2036133,58.3529968 					"/>
					<polygon class="st2" points="542.6850586,39.1811981 393.8150024,-339.9805298 351.3588867,-339.9805298 					"/>
				</g>
				<g>
					<polygon class="st2" points="611.4887695,434.4570007 645.8023071,434.4570007 549.112793,59.0307999 					"/>
					<polygon class="st2" points="544.7680664,38.5033836 481.8900757,-339.9805298 447.3041992,-339.9805298 					"/>
				</g>
			</g>
		</g>
		<g class="st3">
			<path class="st4" d="M268.4898071,109.5004959c-0.4638977-2.0669022-2.3335266-4.1147995-6.4151001-5.7465973
				c0-3.3418045,1.3871765-10.4756012-5.8408203-12.3735199c4.4667969-12.0287781-8.2494965-11.6845779-13.7494965-7.9057846
				c0-3.3632965,8.3599091-6.9579926,1.7173004-9.2777939c2.9594116-1.721199-11.5385895-5.4697037-11.3394012-7.9057999
				c14.9312134,4.9423828,17.5288086-9.6235008,6.121109-12.4731026
				c3.5009918-13.9926987-15.7456055-24.3017979-30.1909027-16.3901978c0.0444031-0.4331017,0.0664063-0.8696022,0.0664063-1.3139
				c0-7.375-6.1362-13.6402016-14.6654968-15.8936005c0.0487976-0.4985008,0.0731964-0.9990005,0.0731964-1.5039005
				c0-12.2020988-14.2519073-22.2621994-32.6152039-23.6459999c0.993103-1.5131998,1.5512085-3.2279997,1.5512085-5.0478001
				c0-6.0654993-6.2163086-10.9882994-13.8833008-10.9882994c-1.566803,0-3.0688019,0.2050991-4.4741058,0.5814991
				c0.0014954-0.0913181,0.0039063-0.1820984,0.0039063-0.2758999c0-5.7757988-3.1445007-10.8202991-7.8066101-13.5067997
				c1.3877106-3.2543983,2.1567078-6.839798,2.1567078-10.6054993c0-14.8334999-11.9072037-26.8622971-26.5923004-26.8622971
				c-2.5087051,0-4.9379044,0.3510971-7.2397003,1.0064011c0.2689972-1.4873047,0.4164963-3.0522995,0.4164963-4.6685028
				c0-4.2705002-1.0068283-8.1889038-2.6811523-11.2480011c8.0903549-1.8262024,13.2446518-11.4491959,4.0893555-18.6664963
				c8.4682999-12.3731003-7.685051-28.1831055-20.0581055-20.278801c-3.435997-8.2486038-18.7177963-8.3384171-23.1630974-0.6006012
				c-2.5687981-3.9970932-6.706501-6.5918198-11.3759995-6.5918198c-3.3930016,0-6.5062981,1.3725281-8.9408989,3.6587219
				c-0.0009995-6.0684052-4.7451019-10.9848938-10.5898018-10.9848938c-0.4692993,0-0.9301987,0.0326996-1.3848,0.0922852
				c0.1372013-0.9223938,0.2070007-1.8715973,0.2070007-2.8402863c0-6.3462067-3.0449009-11.8838348-7.5771008-14.9224091
				v267.1796875H268.4898071z"/>
			<path class="st5" d="M378.7763977,106.0087967c-0.0058899-0.1314011-0.0220032-0.2612-0.0220032-0.3949966
				c0-4.662117,4.5479126-8.4394989,10.1524048-8.4394989c1.6171875,0,3.1469116,0.3153839,4.5039063,0.8754959
				c-0.6289063-1.472702-0.9721985-3.0756989-0.9721985-4.7523956c0-7.1802063,6.3208008-13.0020065,14.1206055-13.0020065
				c2.8822937,0,5.5639954,0.797905,7.8007813,2.1621017c0.8091125-2.2705002,3.1802063-4.1478958,6.3330078-5.1102982
				l-0.0054016-0.091301c-3.0140991-2.7289963-4.8637085-6.3920975-4.8637085-10.4179993
				c0-8.4418983,8.1045227-15.2846985,18.0966187-15.2846985c3.2245789,0,6.2519836,0.7157974,8.8759766,1.9648972
				c0.4346008-3.2784157,3.5908203-6.0624962,8.0278015-7.4374962c-5.1371765-2.903801-8.519989-7.8472023-8.519989-13.4575996
				c0-8.4370022,7.6538086-15.3686008,17.4190063-16.1250019c-0.9868164-2.3583994-1.5336914-4.9193993-1.5336914-7.5960989
				c0-11.7138996,10.3778992-21.2133999,23.1689148-21.2133999c8.6459961,0,16.1884766,4.3388,20.1703796,10.7660999
				c2.2807922-1.5918,5.2573853-2.5536997,8.5151978-2.5536997c0.2098999,0,0.4188843,0.0033998,0.6264038,0.0121999
				c-0.265625-1.1724181-0.4062195-2.3985-0.4062195-3.6630998c0-8.0596008,5.7295227-14.5971985,12.797821-14.5971985
				c2.1972656,0,4.2686157,0.6313992,6.0742798,1.7441998c4.1019897-17.3818989,20.0228882-30.3417988,39.0317383-30.3417988
				c8.2914429,0,15.9887695,2.4735985,22.3803711,6.697197v150.2563934H378.7763977z"/>
			<path class="st6" d="M170.0054016,101.2997971c4.5565948,0,9.0072937-0.1215973,13.3016968-0.3510971
				c1.9291992,3.6699982,11.012207,6.8007965,23.7579041,8.551796h46.8900909
				c0.1743011-0.0243988,0.3549957-0.0453949,0.5278015-0.0698013c0.0097961,0.0233994,0.0243988,0.0468063,0.0346985,0.0698013
				h80.3169098c0.0101929-0.2080002,0.0282898-0.4145966,0.0282898-0.623497c0-8.1993027-8.1879883-14.849205-18.2832031-14.849205
				c-3.0336914,0-5.8955078,0.6001053-8.4136047,1.6645889c0.1416016-0.7387848,0.2183228-1.498085,0.2183228-2.2700043
				c0-7.5444794-7.1011047-13.75-16.1895142-14.4736786c1.0903931-2.6460037,1.6875-5.5312042,1.6875-8.5560989
				c0-12.0655022-9.5336914-21.9702187-21.6654968-22.9488029c0.1509094-0.920414,0.2319031-1.8564148,0.2319031-2.8060989
				c0-12.5488014-13.6893921-22.7265987-30.5751953-22.7265987c-10.3735046,0-19.5415039,3.8408985-25.0678101,9.7123985
				c-1.8511047-3.2705002-5.3179016-5.4687004-9.2906036-5.4687004c-0.6649933,0-1.3158875,0.0605011-1.9461975,0.1792011
				c-4.4052887-5.887701-12.8915863-9.8770008-22.6401978-9.8770008c-14.2753906,0-25.8486023,8.5493011-25.8486023,19.0908985
				c0,1.3540001,0.1929016,2.672802,0.5581055,3.9477005c-12.2201996,0.2924995-21.9922028,8.1737862-21.9922028,17.8652
				c0,4.4965858,2.1029968,8.5986977,5.574707,11.7398033c-21.5986023,2.7655945-36.4667816,8.5477829-36.4667816,15.2304993
				C104.7539215,93.703598,133.9736023,101.2997971,170.0054016,101.2997971z M181.9418945,54.622097
				c-0.358902,0.2749023-0.7064972,0.5517006-1.0458984,0.8374023c-0.0370941-0.3013-0.089798-0.596199-0.1464996-0.8921165
				C181.144104,54.5912971,181.5420074,54.6078987,181.9418945,54.622097z"/>
			<path class="st6" d="M258.3988953,105.1112976c-11.7088928,0.5948029-21.5702972,2.2128983-27.4375,4.3891983h125.3891907
				c4.2030945-2.8511124,6.8114929-6.7798004,6.8114929-11.1244965c0-8.7012024-10.4222717-15.7593002-23.2719727-15.7593002
				c-0.5615234,0-1.1157227,0.0136795-1.6625061,0.0381012v-0.0381012c0-12.2832031-8.9346008-22.2451019-19.9532166-22.2451019
				c-9.9487,0-18.2006836,8.1245041-19.7030945,18.7490005c-1.9755859-0.1382141-4.0023804-0.2099991-6.0644836-0.2099991
				c-21.5737,0-39.0703125,7.8867798-39.0703125,17.6109009C253.4364929,99.642601,255.2422028,102.5687943,258.3988953,105.1112976
				z"/>
		</g>
	</g>
</g>
</svg>
