<?xml version="1.0" encoding="utf-8"?>
<!-- Generator: Adobe Illustrator 19.1.0, SVG Export Plug-In . SVG Version: 6.00 Build 0)  -->
<svg version="1.1" id="Capa_1" xmlns="http://www.w3.org/2000/svg" xmlns:xlink="http://www.w3.org/1999/xlink" x="0px" y="0px"
	 viewBox="-354.1 250.5 293.6 293.6" style="enable-background:new -354.1 250.5 293.6 293.6;" xml:space="preserve">
<style type="text/css">
	.st0{fill:#000;}
</style>
<g>
	<path class="st0" d="M-316,251h217.5c20.7,0,37.6,15.3,37.6,37.6V506c0,22.3-16.9,37.6-37.6,37.6H-316c-20.7,0-37.6-15.3-37.6-37.6
		V288.6C-353.6,266.3-336.7,251-316,251L-316,251z M-140.5,283.5c-7.2,0-13.2,5.9-13.2,13.2v31.5c0,7.2,5.9,13.2,13.2,13.2h33.1
		c7.2,0,13.2-5.9,13.2-13.2v-31.5c0-7.2-5.9-13.2-13.2-13.2H-140.5L-140.5,283.5z M-94.1,374.7h-25.8c2.4,8,3.8,16.4,3.8,25.1
		c0,48.7-40.7,88.1-91,88.1c-50.2,0-90.9-39.5-90.9-88.1c0-8.7,1.3-17.1,3.8-25.1h-26.9v123.6c0,6.4,5.2,11.6,11.6,11.6h203.8
		c6.4,0,11.6-5.2,11.6-11.6L-94.1,374.7L-94.1,374.7z M-207,339.7c-32.5,0-58.8,25.5-58.8,56.9s26.3,56.9,58.8,56.9
		c32.5,0,58.8-25.5,58.8-56.9S-174.6,339.7-207,339.7z"/>
</g>
</svg>
